<svg height="497" width="385" xmlns="http://www.w3.org/2000/svg"><g fill="none" fill-rule="evenodd"><path d="M58.786 154.892c32.398-73.361 238.378-59.935 301.757 35.3C423.92 285.424 351.488 497 286.56 497s-64.928-142.848-91.7-184.8C168.088 270.25 26.39 228.252 58.786 154.892z" fill="#fae6ce"/><path d="M7.142 364c18.353 34.44 50.509 8.484 91.851-27.543 41.343-36.027 93.76-71.596 75.407-106.036-18.353-34.439-84.289-30.04-125.631 5.988C7.426 272.436-11.211 329.56 7.142 364z" fill="#d0d5fa" fill-opacity=".6"/><path d="M322.924 114C349.111 114 378 88.937 378 57S349.111 0 322.924 0 287 36.549 287 62.743C287 88.937 296.738 114 322.924 114z" fill="#d0d5fa"/><path d="M17 46l12-12 12 12-12 12z" fill="#2026a2" opacity=".6"/><path d="M331 426l24-24 24 24-24 24z" fill="#ff9b21" fill-opacity=".6"/></g></svg>