<svg viewBox="0 0 423.87 132.93" xmlns="http://www.w3.org/2000/svg"><path d="M423.87 86.56a46.38 46.38 0 1 0-46.37 46.37 46.43 46.43 0 0 0 46.37-46.37zm-5.71 0a40.67 40.67 0 1 1-40.66-40.67 40.71 40.71 0 0 1 40.66 40.67zm-4.94 0a35.73 35.73 0 1 0-35.72 35.73 35.77 35.77 0 0 0 35.72-35.73zm-5.89 0a29.84 29.84 0 1 1-29.83-29.84 29.86 29.86 0 0 1 29.83 29.84zm-4.8 0a25 25 0 1 0-25 25 25.06 25.06 0 0 0 25-25zm-5.89 0a19.15 19.15 0 1 1-19.14-19.15 19.18 19.18 0 0 1 19.14 19.15zm-4.8 0a14.35 14.35 0 1 0-14.34 14.34 14.37 14.37 0 0 0 14.34-14.34zm-5.89 0a8.46 8.46 0 1 1-8.45-8.46 8.46 8.46 0 0 1 8.5 8.46zm-4.49 0a4 4 0 1 0-4 4 4 4 0 0 0 4-4zm-94.91 45.81h38.63V88.26h-38.63v44.1zm5.72-9.76h27.2v4h-27.2zm0-9.79h27.2v4.64h-27.2zm0-9.79h27.2v4.65h-27.2V103zm0-9h27.2v3.9h-27.2V94zm-5.72-9h38.63v-44.1h-38.63V85zm5.72-9.75h27.2v4h-27.2zm0-9.79h27.2v4.64h-27.2v-4.65zm0-9.79h27.2v4.64h-27.2v-4.65zm0-9h27.2v3.9h-27.2zm-11.8 85.9h2.86V41.13h-2.86c-25.78 0-46.75 20.5-46.75 45.71s21 45.71 46.75 45.71zM242 100.64L265.32 124A40.7 40.7 0 0 1 242 100.64zm35.65-46.43l-6.34-6.35a41.39 41.39 0 0 1 6.34-.92zm0 14.9l-17.2-17.17a41.87 41.87 0 0 1 5-2.31l12.17 12.18v7.3zm0 14.89l-25.82-25.78a39.55 39.55 0 0 1 4-3.32l21.8 21.8V84zm0 14.9l-32.47-32.44a39.81 39.81 0 0 1 3-4.29l29.43 29.43v7.3zm0 14.9l-36.93-36.9a39.09 39.09 0 0 1 1.87-5.43l35 35v7.3zm0 12.94c-.72 0-1.44-.12-2.16-.2L239.62 90.7c-.12-1.27-.19-2.56-.19-3.86s.06-2.32.16-3.47l38 38v5.34zm-47.9-40.18a46.38 46.38 0 1 0-46.37 46.37 46.43 46.43 0 0 0 46.37-46.37zm-5.71 0a40.67 40.67 0 1 1-40.66-40.67A40.71 40.71 0 0 1 224 86.56zm-4.94 0a35.73 35.73 0 1 0-35.72 35.73 35.77 35.77 0 0 0 35.72-35.73zm-5.89 0a29.84 29.84 0 1 1-29.83-29.84 29.86 29.86 0 0 1 29.83 29.84zm-4.8 0a25 25 0 1 0-25 25 25.06 25.06 0 0 0 25-25zm-5.89 0a19.15 19.15 0 1 1-19.14-19.15 19.18 19.18 0 0 1 19.14 19.15zm-4.8 0a14.35 14.35 0 1 0-14.34 14.34 14.37 14.37 0 0 0 14.34-14.34zm-5.89 0a8.46 8.46 0 1 1-8.45-8.46 8.46 8.46 0 0 1 8.45 8.46zm-4.49 0a4 4 0 1 0-4 4 4 4 0 0 0 4-4zM93 132.36h39.13V0H93zM121.08 5.71h5.32v120.93h-5.32zm-11.08 0h5.16v120.93H110zm-11.27 0H104v120.93h-5.3V5.71zM87.27 91.12v-2.85H41.85v44l3.06.07c15.74 0 42.36-8.68 42.36-41.24zM53.59 94a7.05 7.05 0 0 1-6 4.89V94zm9.34 0a15.67 15.67 0 0 1-15.36 14v-4a12 12 0 0 0 11.17-10zm9.29 0a25.56 25.56 0 0 1-24.65 23.26V113A20.7 20.7 0 0 0 68 94zm9.26 0c-1.54 27.64-25.39 31.91-33.91 32.56v-4.27A30.59 30.59 0 0 0 77.26 94zm-39.63-9h45.42v-2.83c0-32.55-26.62-41.24-42.36-41.24l-3.06.07zm5.72-10.59a7 7 0 0 1 6 4.88h-6v-4.86zm0-9.07a15.67 15.67 0 0 1 15.36 14h-4.19a12.05 12.05 0 0 0-11.17-9.94v-4zm0-9.31a25.56 25.56 0 0 1 24.65 23.28H68a20.71 20.71 0 0 0-20.4-19v-4.26zm0-9.29c8.52.64 32.37 4.91 33.91 32.55h-4.22A30.59 30.59 0 0 0 47.57 51v-4.24zM0 132.36h38.63V0H0zm5.71-9.76h27.2v4H5.71zm0-9.78h27.2v4.64H5.71zm0-9.79h27.2v4.64H5.71V103zm0-9.79h27.2v4.64H5.71zm0-9.79h27.2v4.65H5.71zm0-9.79h27.2v4.65H5.71zm0-9.79h27.2v4.65H5.71zm0-9.79h27.2v4.65H5.71zm0-9.78h27.2v4.64H5.71zm0-9.79h27.2v4.64H5.71zm0-9.79h27.2v4.64H5.71zm0-9.79h27.2v4.65H5.71zm0-9.22h27.2v4.08H5.71z"/></svg>