<svg height="364" viewBox="0 0 317 364" width="317" xmlns="http://www.w3.org/2000/svg" xmlns:xlink="http://www.w3.org/1999/xlink"><defs><path id="a" d="m4 0h307v354c0 2.209139-1.790861 4-4 4h-303c-2.209139 0-4-1.790861-4-4v-350c0-2.209139 1.790861-4 4-4z"/><filter id="b" height="102.8%" width="103.2%" x="-1.6%" y="-1.1%"><feOffset dx="0" dy="1" in="SourceAlpha" result="shadowOffsetOuter1"/><feGaussianBlur in="shadowOffsetOuter1" result="shadowBlurOuter1" stdDeviation="1.5"/><feColorMatrix in="shadowBlurOuter1" result="shadowMatrixOuter1" type="matrix" values="0 0 0 0 0   0 0 0 0 0   0 0 0 0 0  0 0 0 0.2 0"/><feMorphology in="SourceAlpha" operator="erode" radius="0.5" result="shadowSpreadOuter2"/><feOffset dx="0" dy="2" in="shadowSpreadOuter2" result="shadowOffsetOuter2"/><feGaussianBlur in="shadowOffsetOuter2" result="shadowBlurOuter2" stdDeviation=".5"/><feColorMatrix in="shadowBlurOuter2" result="shadowMatrixOuter2" type="matrix" values="0 0 0 0 0   0 0 0 0 0   0 0 0 0 0  0 0 0 0.12 0"/><feOffset dx="0" dy="1" in="SourceAlpha" result="shadowOffsetOuter3"/><feGaussianBlur in="shadowOffsetOuter3" result="shadowBlurOuter3" stdDeviation=".5"/><feColorMatrix in="shadowBlurOuter3" result="shadowMatrixOuter3" type="matrix" values="0 0 0 0 0   0 0 0 0 0   0 0 0 0 0  0 0 0 0.14 0"/><feMerge><feMergeNode in="shadowMatrixOuter1"/><feMergeNode in="shadowMatrixOuter2"/><feMergeNode in="shadowMatrixOuter3"/></feMerge></filter><path id="c" d="m4 0h236c2.209139 0 4 1.790861 4 4v28c0 2.209139-1.790861 4-4 4h-236c-2.209139 0-4-1.790861-4-4v-28c0-2.209139 1.790861-4 4-4z"/><filter id="d" height="127.8%" width="104.1%" x="-2%" y="-11.1%"><feOffset dx="0" dy="1" in="SourceAlpha" result="shadowOffsetOuter1"/><feGaussianBlur in="shadowOffsetOuter1" result="shadowBlurOuter1" stdDeviation="1.5"/><feColorMatrix in="shadowBlurOuter1" result="shadowMatrixOuter1" type="matrix" values="0 0 0 0 0   0 0 0 0 0   0 0 0 0 0  0 0 0 0.2 0"/><feMorphology in="SourceAlpha" operator="erode" radius="0.5" result="shadowSpreadOuter2"/><feOffset dx="0" dy="2" in="shadowSpreadOuter2" result="shadowOffsetOuter2"/><feGaussianBlur in="shadowOffsetOuter2" result="shadowBlurOuter2" stdDeviation=".5"/><feColorMatrix in="shadowBlurOuter2" result="shadowMatrixOuter2" type="matrix" values="0 0 0 0 0   0 0 0 0 0   0 0 0 0 0  0 0 0 0.12 0"/><feOffset dx="0" dy="1" in="SourceAlpha" result="shadowOffsetOuter3"/><feGaussianBlur in="shadowOffsetOuter3" result="shadowBlurOuter3" stdDeviation=".5"/><feColorMatrix in="shadowBlurOuter3" result="shadowMatrixOuter3" type="matrix" values="0 0 0 0 0   0 0 0 0 0   0 0 0 0 0  0 0 0 0.14 0"/><feMerge><feMergeNode in="shadowMatrixOuter1"/><feMergeNode in="shadowMatrixOuter2"/><feMergeNode in="shadowMatrixOuter3"/></feMerge></filter><mask id="e" fill="#fff"><use fill="#fff" fill-rule="evenodd" xlink:href="#a"/></mask><mask id="f" fill="#fff"><use fill="#fff" fill-rule="evenodd" xlink:href="#c"/></mask></defs><g fill="none" fill-rule="evenodd" transform="translate(3 2)"><use fill="#000" filter="url(#b)" xlink:href="#a"/><use fill="#fafafa" fill-rule="evenodd" xlink:href="#a"/><g mask="url(#e)"><path d="m0 0h311v358h-311z" fill="#fff"/><g transform="translate(34 256)"><use fill="#000" filter="url(#d)" xlink:href="#c"/><use fill="#fafafa" fill-rule="evenodd" xlink:href="#c"/><g fill="#fbc02d" mask="url(#f)"><path d="m0 0h244v36h-244z"/></g><g fill="#fff" fill-rule="nonzero" mask="url(#f)"><path d="m63.2816367 3.20705469v5.57694922c0 1.30178779-.3870788 2.34961259-1.161248 3.14350589-.7741693.7938933-1.7776156 1.190834-3.0103692 1.190834-1.2228915 0-2.2214069-.3969407-2.9955761-1.190834-.7741693-.7938933-1.1612481-1.8417181-1.1612481-3.14350589v-5.57694922h1.1094727v5.60653515c0 1.05523705.3155801 1.87870406.94675 2.47042576.5424115.5029635 1.2426051.7544414 2.1006015.7544414.8579965 0 1.563121-.2514779 2.1153946-.7544414.6311698-.5818597.94675-1.40532668.94675-2.47042576v-5.60653515zm4.6375899 9.79294531h-1.1094727v-9.79294531h4.4083047c1.035513 0 1.85898.28599453 2.4704258.85799219.6015837.57199765.9023711 1.33629339.9023711 2.29291015 0 .96647879-.3032529 1.73324-.9097676 2.30030664-.6065148.56706664-1.4275163.85059571-2.4630293.85059571h-3.298832zm0-8.74264453v4.21599609h3.2248671c.7692383 0 1.3510892-.18737573 1.7455704-.56213281.3944811-.37475708.5917187-.89004034.5917187-1.54586523 0-.6558249-.1972376-1.17110816-.5917187-1.54586524-.3944812-.37475708-.9763321-.56213281-1.7455704-.56213281zm10.5399843-1.05030078v8.72785161h5.3402618v1.0650937h-6.4497344v-9.79294531zm11.9453164-.11834375c1.4595803 0 2.6577987.48816308 3.5946915 1.4645039.9171686.94675474 1.375746 2.1301804 1.375746 3.5503125s-.4585774 2.60355776-1.375746 3.55031246c-.9368928.9763409-2.1351112 1.464504-3.5946915 1.464504-1.4595802 0-2.6577987-.4881631-3.5946914-1.464504-.9171686-.9467547-1.3757461-2.13018036-1.3757461-3.55031246s.4585775-2.60355776 1.3757461-3.5503125c.9368927-.97634082 2.1351112-1.4645039 3.5946914-1.4645039zm0 8.94974606c1.1637194 0 2.105529-.3796824 2.8254571-1.1390586.690342-.7297901 1.0355078-1.66173778 1.0355078-2.79587106 0-1.13413327-.3451658-2.06608098-1.0355078-2.79587109-.7199281-.75937619-1.6617377-1.13905859-2.8254571-1.13905859-1.1637193 0-2.1055289.3796824-2.825457 1.13905859-.690342.72979011-1.0355078 1.66173782-1.0355078 2.79587109 0 1.13413328.3451658 2.06608096 1.0355078 2.79587106.7199281.7593762 1.6617377 1.1390586 2.825457 1.1390586zm16.3536207.961543h-1.227816l-1.19823-2.84025h-4.8520942l-1.1982305 2.84025h-1.2278164l4.1568241-9.79294531h1.390539zm-2.855043-3.86096484-1.99705-4.77812891-1.9970511 4.77812891zm9.474891-5.93198047c.58186 0 1.143987.11094615 1.686399.33284179.542411.22189565 1.020712.54487223 1.434918.96893946.917168.9368927 1.375746 2.13511119 1.375746 3.5946914 0 1.45958022-.458578 2.65779866-1.375746 3.59469146-.414206.4240672-.892507.7470438-1.434918.9689394-.542412.2218956-1.104539.3328418-1.686399.3328418h-4.127238v-9.79294531zm-.044379 8.74264451c1.025651 0 1.85898-.3796824 2.500012-1.1390586.621308-.7297901.931957-1.63215215.931957-2.70711326 0-1.0749611-.310649-1.97732317-.931957-2.70711328-.641032-.75937619-1.474361-1.13905859-2.500012-1.13905859h-2.973387v7.69234373zm13.091766-7.67755076v3.40238281h5.310676v1.07988672h-5.310676v4.24558203h-1.109473v-9.79294531h7.071039v1.06509375zm9.874301 8.72785156h-1.109473v-9.79294531h1.109473zm4.755933-9.79294531v8.72785161h5.340262v1.0650937h-6.449734v-9.79294531zm9.134653 1.06509375v3.28403906h5.443812v1.07988672h-5.443812v3.29883208h6.094703v1.0650937h-7.204176v-9.79294531h7.204176v1.06509375z" transform="translate(16 10)"/></g></g><circle cx="156" cy="134" fill="#000" r="71"/><path d="m113 91h86v86h-86z"/><path d="m22.9689727 3.60604688c.4987368 0 .9805601.0950967 1.4454843.28529296.4649242.19019627.8748967.46703334 1.2299297.83051954.7861446.80305089 1.179211 1.8300953 1.179211 3.08116406 0 1.25106875-.3930664 2.27811316-1.179211 3.08116406-.355033.3634862-.7650055.6403233-1.2299297.8305195-.4649242.1901963-.9467475.285293-1.4454843.285293h-3.5376329v-8.39395312zm-.0380391 7.49369532c.8791294 0 1.5934113-.3254421 2.1428672-.9763359.5325495-.62553443.7988203-1.39898763.7988203-2.32038286s-.2662708-1.69484844-.7988203-2.32038281c-.5494559-.65089388-1.2637378-.97633594-2.1428672-.97633594h-2.5486172v6.59343751zm8.3778828.9002578h-.9509766v-8.39395312h4.019461c.8537699 0 1.5384662.23668513 2.0541094.71006249.5156432.4649242.7734609 1.10312876.7734609 1.91463282 0 1.04819274-.4353316 1.76247466-1.3060078 2.14286719-.2451419.10989117-.4860535.19019505-.7227422.24091406l2.2062656 3.38547656h-1.1284922l-2.02875-3.22064062h-2.9163281zm0-4.12089844h2.9036484c.8960358 0 1.5131077-.27895033 1.8512344-.83685937.1267975-.21132918.1901953-.48182648.1901953-.8115 0-.53254954-.1817403-.9530883-.5452265-1.26162891-.3634862-.3085406-.8453095-.46280859-1.4454844-.46280859h-2.9543672zm13.2595625-4.37449219c1.2510688 0 2.2781132.41842551 3.0811641 1.25528907.7861445.81150406 1.1792109 1.82586891 1.1792109 3.043125 0 1.21725608-.3930664 2.23162096-1.1792109 3.04312496-.8030509.8368636-1.8300953 1.2552891-3.0811641 1.2552891-1.2510687 0-2.2781132-.4184255-3.0811641-1.2552891-.7861445-.811504-1.1792109-1.82586888-1.1792109-3.04312496 0-1.21725609.3930664-2.23162094 1.1792109-3.043125.8030509-.83686356 1.8300954-1.25528907 3.0811641-1.25528907zm0 7.67121093c.9974737 0 1.8047391-.325442 2.4218203-.9763359.5917217-.6255344.8875781-1.42434673.8875781-2.39646096 0-.97211424-.2958564-1.77092656-.8875781-2.39646094-.6170812-.65089388-1.4243466-.97633594-2.4218203-.97633594s-1.8047391.32544206-2.4218203.97633594c-.5917217.62553438-.8875781 1.4243467-.8875781 2.39646094 0 .97211423.2958564 1.77092656.8875781 2.39646096.6170812.6508939 1.4243466.9763359 2.4218203.9763359zm8.7329141.8241797h-.9509766v-8.39395312h3.7785469c.8875825 0 1.5934114.24513817 2.1175078.73542187.5156432.4902837.7734609 1.14539434.7734609 1.96535156 0 .82841039-.259931 1.48563429-.7798008 1.97169141-.5198697.48605712-1.2235854.72908203-2.1111679.72908203h-2.8275703zm0-7.49369531v3.61371094h2.7641718c.6593471 0 1.1580765-.16060777 1.4962032-.48182813s.5071875-.76289172.5071875-1.32502734c0-.56213563-.1690608-1.00380699-.5071875-1.32502735-.3381267-.32122035-.8368561-.48182812-1.4962032-.48182812zm14.6636172 7.49369531h-.9509766v-8.39395312h.9509766zm10.0135625-7.48101563h-2.9290079v7.48101563h-.9509765v-7.48101563h-2.9290078v-.91293749h6.8089922zm14.6889765-.91293749v8.39395312h-.9509765v-3.74050781h-4.8816797v3.74050781h-.9509766v-8.39395312h.9509766v3.72782812h4.8816797v-3.72782812zm5.005086.91293749v2.81489063h4.6661248v.92561719h-4.6661248v2.82757031h5.2240308v.9129375h-6.1750074v-8.39395312h6.1750074v.91293749zm9.7092498 7.48101563h-.950976v-8.39395312h4.019461c.853769 0 1.538466.23668513 2.054109.71006249.515643.4649242.773461 1.10312876.773461 1.91463282 0 1.04819274-.435332 1.76247466-1.306008 2.14286719-.245142.10989117-.486053.19019505-.722742.24091406l2.206265 3.38547656h-1.128492l-2.02875-3.22064062h-2.916328zm0-4.12089844h2.903649c.896035 0 1.513107-.27895033 1.851234-.83685937.126797-.21132918.190195-.48182648.190195-.8115 0-.53254954-.18174-.9530883-.545226-1.26162891-.363486-.3085406-.84531-.46280859-1.445485-.46280859h-2.954367zm10.482711-3.36011719v2.81489063h4.666125v.92561719h-4.666125v2.82757031h5.224031v.9129375h-6.175007v-8.39395312h6.175007v.91293749z" fill="#000" fill-opacity=".6" fill-rule="nonzero" transform="translate(84 225)"/></g><g mask="url(#e)"><path d="m21.5 7.16666667c-3.9416667 0-7.1308333 3.22500003-7.1308333 7.16666663l-.0358334 57.3333334c0 3.9416666 3.1891667 7.1666666 7.1308334 7.1666666h43.0358333c3.9416667 0 7.1666667-3.225 7.1666667-7.1666666v-43l-21.5-21.50000003zm25.0833333 25.08333333v-19.7083333l19.7083334 19.7083333z" fill="#fff" fill-rule="nonzero" transform="translate(113 91)"/><path d="m19.2902775 10.3464035-9.64513876-10.3464035-9.64513874 10.3464035 2.81126082 3.0156579 4.84542515-5.22223684v15.15184214h3.97690553v-15.15184214l4.8454252 5.22223684z" fill="#000" transform="translate(146.145833 132.208333)"/></g></g></svg>