<svg height="364" viewBox="0 0 317 364" width="317" xmlns="http://www.w3.org/2000/svg" xmlns:xlink="http://www.w3.org/1999/xlink"><defs><path id="a" d="m4 0h307v354c0 2.209139-1.790861 4-4 4h-303c-2.209139 0-4-1.790861-4-4v-350c0-2.209139 1.790861-4 4-4z"/><filter id="b" height="102.8%" width="103.2%" x="-1.6%" y="-1.1%"><feOffset dx="0" dy="1" in="SourceAlpha" result="shadowOffsetOuter1"/><feGaussianBlur in="shadowOffsetOuter1" result="shadowBlurOuter1" stdDeviation="1.5"/><feColorMatrix in="shadowBlurOuter1" result="shadowMatrixOuter1" type="matrix" values="0 0 0 0 0   0 0 0 0 0   0 0 0 0 0  0 0 0 0.2 0"/><feMorphology in="SourceAlpha" operator="erode" radius="0.5" result="shadowSpreadOuter2"/><feOffset dx="0" dy="2" in="shadowSpreadOuter2" result="shadowOffsetOuter2"/><feGaussianBlur in="shadowOffsetOuter2" result="shadowBlurOuter2" stdDeviation=".5"/><feColorMatrix in="shadowBlurOuter2" result="shadowMatrixOuter2" type="matrix" values="0 0 0 0 0   0 0 0 0 0   0 0 0 0 0  0 0 0 0.12 0"/><feOffset dx="0" dy="1" in="SourceAlpha" result="shadowOffsetOuter3"/><feGaussianBlur in="shadowOffsetOuter3" result="shadowBlurOuter3" stdDeviation=".5"/><feColorMatrix in="shadowBlurOuter3" result="shadowMatrixOuter3" type="matrix" values="0 0 0 0 0   0 0 0 0 0   0 0 0 0 0  0 0 0 0.14 0"/><feMerge><feMergeNode in="shadowMatrixOuter1"/><feMergeNode in="shadowMatrixOuter2"/><feMergeNode in="shadowMatrixOuter3"/></feMerge></filter><path id="c" d="m4 0h236c2.209139 0 4 1.790861 4 4v28c0 2.209139-1.790861 4-4 4h-236c-2.209139 0-4-1.790861-4-4v-28c0-2.209139 1.790861-4 4-4z"/><filter id="d" height="127.8%" width="104.1%" x="-2%" y="-11.1%"><feOffset dx="0" dy="1" in="SourceAlpha" result="shadowOffsetOuter1"/><feGaussianBlur in="shadowOffsetOuter1" result="shadowBlurOuter1" stdDeviation="1.5"/><feColorMatrix in="shadowBlurOuter1" result="shadowMatrixOuter1" type="matrix" values="0 0 0 0 0   0 0 0 0 0   0 0 0 0 0  0 0 0 0.2 0"/><feMorphology in="SourceAlpha" operator="erode" radius="0.5" result="shadowSpreadOuter2"/><feOffset dx="0" dy="2" in="shadowSpreadOuter2" result="shadowOffsetOuter2"/><feGaussianBlur in="shadowOffsetOuter2" result="shadowBlurOuter2" stdDeviation=".5"/><feColorMatrix in="shadowBlurOuter2" result="shadowMatrixOuter2" type="matrix" values="0 0 0 0 0   0 0 0 0 0   0 0 0 0 0  0 0 0 0.12 0"/><feOffset dx="0" dy="1" in="SourceAlpha" result="shadowOffsetOuter3"/><feGaussianBlur in="shadowOffsetOuter3" result="shadowBlurOuter3" stdDeviation=".5"/><feColorMatrix in="shadowBlurOuter3" result="shadowMatrixOuter3" type="matrix" values="0 0 0 0 0   0 0 0 0 0   0 0 0 0 0  0 0 0 0.14 0"/><feMerge><feMergeNode in="shadowMatrixOuter1"/><feMergeNode in="shadowMatrixOuter2"/><feMergeNode in="shadowMatrixOuter3"/></feMerge></filter><mask id="e" fill="#fff"><use fill="#fff" fill-rule="evenodd" xlink:href="#a"/></mask><mask id="f" fill="#fff"><use fill="#fff" fill-rule="evenodd" xlink:href="#c"/></mask></defs><g fill="none" fill-rule="evenodd" transform="translate(3 2)"><use fill="#000" filter="url(#b)" xlink:href="#a"/><use fill="#fafafa" fill-rule="evenodd" xlink:href="#a"/><g mask="url(#e)"><path d="m0 0h311v358h-311z" fill="#fff"/><g transform="translate(34 256)"><use fill="#000" filter="url(#d)" xlink:href="#c"/><use fill="#fafafa" fill-rule="evenodd" xlink:href="#c"/><g fill="#fbc02d" fill-rule="evenodd" mask="url(#f)"><path d="m0 0h244v36h-244z"/></g><g font-family="Questrial-Regular, Questrial" font-size="14.792969" letter-spacing="1.25" mask="url(#f)"><text transform="translate(16 10)"><tspan fill="#fff" x="53.873309" y="12">UPLOAD FILE</tspan></text></g></g><circle cx="156" cy="134" fill="#000" r="71"/><path d="m113 91h86v86h-86z"/><text fill="#000" fill-opacity=".6" font-family="Questrial-Regular, Questrial" font-size="12.679688" letter-spacing="2" transform="translate(84 225)"><tspan x="18.404285" y="10">DROP IT HERE</tspan></text></g><g mask="url(#e)"><path d="m21.5 7.16666667c-3.9416667 0-7.1308333 3.22500003-7.1308333 7.16666663l-.0358334 57.3333334c0 3.9416666 3.1891667 7.1666666 7.1308334 7.1666666h43.0358333c3.9416667 0 7.1666667-3.225 7.1666667-7.1666666v-43l-21.5-21.50000003zm25.0833333 25.08333333v-19.7083333l19.7083334 19.7083333z" fill="#fff" fill-rule="nonzero" transform="translate(113 91)"/><path d="m19.2902775 10.3464035-9.64513876-10.3464035-9.64513874 10.3464035 2.81126082 3.0156579 4.84542515-5.22223684v15.15184214h3.97690553v-15.15184214l4.8454252 5.22223684z" fill="#000" transform="translate(146.145833 132.208333)"/></g></g></svg>