<svg height="364" width="317" xmlns="http://www.w3.org/2000/svg" xmlns:xlink="http://www.w3.org/1999/xlink"><defs><path id="a" d="M4 0h307v354a4 4 0 0 1-4 4H4a4 4 0 0 1-4-4V4a4 4 0 0 1 4-4z"/><filter id="c" height="102.8%" width="103.2%" x="-1.6%" y="-1.1%"><feOffset dy="1" in="SourceAlpha" result="shadowOffsetOuter1"/><feGaussianBlur in="shadowOffsetOuter1" result="shadowBlurOuter1" stdDeviation="1.5"/><feColorMatrix in="shadowBlurOuter1" result="shadowMatrixOuter1" values="0 0 0 0 0 0 0 0 0 0 0 0 0 0 0 0 0 0 0.2 0"/><feMorphology in="SourceAlpha" radius=".5" result="shadowSpreadOuter2"/><feOffset dy="2" in="shadowSpreadOuter2" result="shadowOffsetOuter2"/><feGaussianBlur in="shadowOffsetOuter2" result="shadowBlurOuter2" stdDeviation=".5"/><feColorMatrix in="shadowBlurOuter2" result="shadowMatrixOuter2" values="0 0 0 0 0 0 0 0 0 0 0 0 0 0 0 0 0 0 0.12 0"/><feOffset dy="1" in="SourceAlpha" result="shadowOffsetOuter3"/><feGaussianBlur in="shadowOffsetOuter3" result="shadowBlurOuter3" stdDeviation=".5"/><feColorMatrix in="shadowBlurOuter3" result="shadowMatrixOuter3" values="0 0 0 0 0 0 0 0 0 0 0 0 0 0 0 0 0 0 0.14 0"/><feMerge><feMergeNode in="shadowMatrixOuter1"/><feMergeNode in="shadowMatrixOuter2"/><feMergeNode in="shadowMatrixOuter3"/></feMerge></filter><path id="b" d="M4 0h236a4 4 0 0 1 4 4v28a4 4 0 0 1-4 4H4a4 4 0 0 1-4-4V4a4 4 0 0 1 4-4z"/><filter id="e" height="127.8%" width="104.1%" x="-2%" y="-11.1%"><feOffset dy="1" in="SourceAlpha" result="shadowOffsetOuter1"/><feGaussianBlur in="shadowOffsetOuter1" result="shadowBlurOuter1" stdDeviation="1.5"/><feColorMatrix in="shadowBlurOuter1" result="shadowMatrixOuter1" values="0 0 0 0 0 0 0 0 0 0 0 0 0 0 0 0 0 0 0.2 0"/><feMorphology in="SourceAlpha" radius=".5" result="shadowSpreadOuter2"/><feOffset dy="2" in="shadowSpreadOuter2" result="shadowOffsetOuter2"/><feGaussianBlur in="shadowOffsetOuter2" result="shadowBlurOuter2" stdDeviation=".5"/><feColorMatrix in="shadowBlurOuter2" result="shadowMatrixOuter2" values="0 0 0 0 0 0 0 0 0 0 0 0 0 0 0 0 0 0 0.12 0"/><feOffset dy="1" in="SourceAlpha" result="shadowOffsetOuter3"/><feGaussianBlur in="shadowOffsetOuter3" result="shadowBlurOuter3" stdDeviation=".5"/><feColorMatrix in="shadowBlurOuter3" result="shadowMatrixOuter3" values="0 0 0 0 0 0 0 0 0 0 0 0 0 0 0 0 0 0 0.14 0"/><feMerge><feMergeNode in="shadowMatrixOuter1"/><feMergeNode in="shadowMatrixOuter2"/><feMergeNode in="shadowMatrixOuter3"/></feMerge></filter><mask id="d" fill="#fff"><use fill-rule="evenodd" xlink:href="#a"/></mask><mask id="f" fill="#fff"><use fill-rule="evenodd" xlink:href="#b"/></mask></defs><g fill="none" fill-rule="evenodd" transform="translate(3 2)"><use fill="#000" filter="url(#c)" xlink:href="#a"/><use fill="#fafafa" xlink:href="#a"/><g mask="url(#d)"><path d="M0 0h311v358H0z" fill="#fff"/><g transform="translate(34 256)"><use fill="#000" filter="url(#e)" xlink:href="#b"/><use fill="#fafafa" xlink:href="#b"/><g fill="#fbc02d" mask="url(#f)"><path d="M0 0h244v36H0z"/></g><g fill="#fff" fill-rule="nonzero" mask="url(#f)"><path d="M79.282 13.207v5.577c0 1.302-.387 2.35-1.162 3.144-.774.793-1.777 1.19-3.01 1.19-1.223 0-2.221-.397-2.996-1.19-.774-.794-1.16-1.842-1.16-3.144v-5.577h1.109v5.607c0 1.055.315 1.878.946 2.47.543.503 1.243.754 2.101.754.858 0 1.563-.251 2.115-.754.632-.582.947-1.405.947-2.47v-5.607zM83.919 23h-1.11v-9.793h4.41c1.035 0 1.858.286 2.47.858.601.572.902 1.336.902 2.293 0 .966-.303 1.733-.91 2.3-.606.567-1.427.85-2.463.85H83.92zm0-8.743v4.216h3.225c.77 0 1.351-.187 1.746-.562.394-.375.591-.89.591-1.546 0-.655-.197-1.17-.591-1.546-.395-.374-.977-.562-1.746-.562zm10.54-1.05v8.728h5.34V23h-6.45v-9.793zm11.946-.118c1.46 0 2.657.488 3.594 1.464.917.947 1.376 2.13 1.376 3.55s-.459 2.604-1.376 3.55c-.937.977-2.135 1.465-3.594 1.465-1.46 0-2.658-.488-3.595-1.464-.917-.947-1.376-2.13-1.376-3.55s.459-2.604 1.376-3.55c.937-.977 2.135-1.465 3.595-1.465zm0 8.95c1.163 0 2.105-.38 2.825-1.14.69-.73 1.035-1.661 1.035-2.795 0-1.135-.345-2.067-1.035-2.796-.72-.76-1.662-1.14-2.825-1.14-1.164 0-2.106.38-2.826 1.14-.69.73-1.035 1.661-1.035 2.796 0 1.134.345 2.066 1.035 2.795.72.76 1.662 1.14 2.826 1.14zm16.353.961h-1.228l-1.198-2.84h-4.852L114.282 23h-1.228l4.157-9.793h1.39zm-2.855-3.861l-1.997-4.778-1.997 4.778zm9.475-5.932c.582 0 1.144.111 1.686.333a4.22 4.22 0 0 1 1.435.969c.917.937 1.376 2.135 1.376 3.595 0 1.46-.459 2.657-1.376 3.594a4.22 4.22 0 0 1-1.435.97 4.413 4.413 0 0 1-1.686.332h-4.127v-9.793zm-.044 8.743c1.025 0 1.859-.38 2.5-1.14.62-.73.932-1.632.932-2.706 0-1.075-.311-1.978-.932-2.708-.641-.759-1.475-1.139-2.5-1.139h-2.974v7.693zm13.091-7.678v3.403h5.311v1.08h-5.31V23h-1.11v-9.793h7.07v1.065zM152.3 23h-1.11v-9.793h1.11zm4.756-9.793v8.728h5.34V23h-6.45v-9.793zm9.134 1.065v3.284h5.444v1.08h-5.444v3.299h6.095V23h-7.204v-9.793h7.204v1.065z"/></g></g><circle cx="156" cy="134" fill="#000" r="71"/><path d="M113 91h86v86h-86z"/><path d="M106.969 228.606c.499 0 .98.095 1.445.285.465.19.875.467 1.23.83.787.804 1.18 1.831 1.18 3.082s-.393 2.278-1.18 3.081c-.355.364-.765.64-1.23.83-.464.19-.946.286-1.445.286h-3.538v-8.394zm-.038 7.494c.88 0 1.593-.326 2.143-.977.532-.625.799-1.399.799-2.32s-.267-1.695-.8-2.32c-.549-.651-1.263-.977-2.142-.977h-2.549v6.594zm8.378.9h-.951v-8.394h4.02c.853 0 1.538.237 2.053.71.516.465.774 1.103.774 1.915 0 1.048-.435 1.762-1.306 2.143-.245.11-.486.19-.723.24l2.206 3.386h-1.128l-2.029-3.22h-2.916zm0-4.12h2.903c.897 0 1.514-.28 1.852-.838.126-.211.19-.482.19-.811 0-.533-.182-.953-.545-1.262-.364-.308-.846-.463-1.446-.463h-2.954zm13.26-4.375c1.25 0 2.277.418 3.08 1.255.787.811 1.18 1.826 1.18 3.043s-.393 2.232-1.18 3.043c-.803.837-1.83 1.255-3.08 1.255-1.252 0-2.279-.418-3.082-1.255-.786-.811-1.179-1.826-1.179-3.043s.393-2.232 1.18-3.043c.802-.837 1.83-1.255 3.08-1.255zm0 7.67c.997 0 1.804-.325 2.421-.976.592-.625.888-1.424.888-2.396s-.296-1.77-.888-2.396c-.617-.651-1.424-.977-2.422-.977s-1.804.326-2.421.977c-.592.625-.888 1.424-.888 2.396s.296 1.77.888 2.396c.617.651 1.424.977 2.421.977zm8.732.825h-.95v-8.394h3.778c.887 0 1.593.245 2.117.735.516.49.774 1.146.774 1.966 0 .828-.26 1.485-.78 1.972-.52.486-1.224.729-2.111.729H137.3zm0-7.494v3.614h2.764c.66 0 1.159-.16 1.497-.482s.507-.763.507-1.325c0-.562-.17-1.004-.507-1.325-.338-.321-.837-.482-1.497-.482zM151.965 237h-.951v-8.394h.95zm10.013-7.481h-2.929V237h-.95v-7.481h-2.93v-.913h6.81zm14.69-.913V237h-.952v-3.74h-4.881V237h-.951v-8.394h.95v3.728h4.882v-3.728zm5.005.913v2.815h4.666v.925h-4.666v2.828h5.224V237h-6.175v-8.394h6.175v.913zm9.709 7.481h-.951v-8.394h4.02c.853 0 1.538.237 2.053.71.516.465.774 1.103.774 1.915 0 1.048-.435 1.762-1.306 2.143-.245.11-.486.19-.723.24l2.206 3.386h-1.128l-2.029-3.22h-2.916zm0-4.12h2.903c.896 0 1.514-.28 1.852-.838.126-.211.19-.482.19-.811 0-.533-.182-.953-.545-1.262-.364-.308-.846-.463-1.446-.463h-2.954zm10.482-3.361v2.815h4.667v.925h-4.667v2.828h5.225V237h-6.175v-8.394h6.175v.913z" fill="#000" fill-opacity=".6" fill-rule="nonzero"/></g><g mask="url(#d)"><path d="M134.5 98.167c-3.942 0-7.13 3.225-7.13 7.166l-.037 57.334c0 3.941 3.19 7.166 7.131 7.166H177.5c3.942 0 7.167-3.225 7.167-7.166v-43l-21.5-21.5zm25.083 25.083v-19.708l19.709 19.708z" fill="#fff" fill-rule="nonzero"/><path d="M165.436 142.555l-9.645-10.347-9.645 10.347 2.811 3.015 4.846-5.222V155.5h3.976v-15.152l4.846 5.222z" fill="#000"/></g></g></svg>