<svg height="420" viewBox="0 0 324 420" width="324" xmlns="http://www.w3.org/2000/svg"><g fill="none" fill-rule="evenodd"><g opacity=".600237"><ellipse cx="162" cy="180" fill="#ff9b21" rx="162" ry="163"/><path d="m82.5 10 38.5 39-38.5 39-38.5-39z" fill="#2b44ff"/><ellipse cx="271" cy="387.5" fill="#2b44ff" rx="32" ry="32.5"/><path d="m298 0 10 10-10 10-10-10z" fill="#2026a2"/></g><circle cx="162" cy="180" fill="#000" r="71"/><g transform="translate(119 137)"><path d="m0 0h86v86h-86z"/><path d="m64.5 28.6666667h-3.5833333v-7.1666667c0-9.89-8.0266667-17.91666667-17.9166667-17.91666667s-17.9166667 8.02666667-17.9166667 17.91666667v7.1666667h-3.5833333c-3.9416667 0-7.1666667 3.225-7.1666667 7.1666666v35.8333334c0 3.9416666 3.225 7.1666666 7.1666667 7.1666666h43c3.9416667 0 7.1666667-3.225 7.1666667-7.1666666v-35.8333334c0-3.9416666-3.225-7.1666666-7.1666667-7.1666666zm-21.5 32.25c-3.9416667 0-7.1666667-3.225-7.1666667-7.1666667s3.225-7.1666667 7.1666667-7.1666667 7.1666667 3.225 7.1666667 7.1666667-3.225 7.1666667-7.1666667 7.1666667zm11.1083333-32.25h-22.2166666v-7.1666667c0-6.1275 4.9808333-11.1083333 11.1083333-11.1083333s11.1083333 4.9808333 11.1083333 11.1083333z" fill="#fff" fill-rule="nonzero"/></g></g></svg>