<svg height="415" width="536" xmlns="http://www.w3.org/2000/svg"><g fill="none" fill-rule="evenodd" opacity=".597"><path d="M167.508 351.838c-79.019-34.943-64.556-257.103 38.022-325.46S536 36.145 536 106.173c0 70.029-153.865 70.029-199.052 98.904-45.186 28.875-90.422 181.704-169.44 146.762z" fill="#ff8b00" opacity=".596"/><path d="M392.308 407.013c37.118-19.75 9.144-54.355-29.685-98.845S285.46 207.27 248.341 227.02c-37.117 19.75-32.376 90.706 6.453 135.197s100.396 64.546 137.514 44.796z" fill="#d0d5fa"/><path d="M123 67.917C123 39.43 95.958 8 61.5 8S0 39.429 0 67.917 39.434 107 67.696 107 123 96.406 123 67.917z" fill="#d0d5fa"/><g fill="#2026a2"><path d="M50.5 397L38 384.5 50.5 372 63 384.5z"/><path d="M459 59l-26-26 26-26 26 26z"/></g></g></svg>