<svg height="420" width="324" xmlns="http://www.w3.org/2000/svg"><g fill="none" fill-rule="evenodd"><g opacity=".6"><ellipse cx="162" cy="180" fill="#ff9b21" rx="162" ry="163"/><path d="M82.5 10L121 49 82.5 88 44 49z" fill="#2b44ff"/><ellipse cx="271" cy="387.5" fill="#2b44ff" rx="32" ry="32.5"/><path d="M298 0l10 10-10 10-10-10z" fill="#2026a2"/></g><circle cx="162" cy="180" fill="#000" r="71"/><path d="M119 137h86v86h-86z"/><path d="M183.5 165.667h-3.583V158.5c0-9.89-8.027-17.917-17.917-17.917s-17.917 8.027-17.917 17.917v7.167H140.5c-3.942 0-7.167 3.225-7.167 7.166v35.834c0 3.941 3.225 7.166 7.167 7.166h43c3.942 0 7.167-3.225 7.167-7.166v-35.834c0-3.941-3.225-7.166-7.167-7.166zm-21.5 32.25c-3.942 0-7.167-3.225-7.167-7.167s3.225-7.167 7.167-7.167 7.167 3.225 7.167 7.167-3.225 7.167-7.167 7.167zm11.108-32.25h-22.216V158.5c0-6.128 4.98-11.108 11.108-11.108s11.108 4.98 11.108 11.108z" fill="#fff" fill-rule="nonzero"/></g></svg>