<svg height="415" viewBox="0 0 536 415" width="536" xmlns="http://www.w3.org/2000/svg"><g fill="none" fill-rule="evenodd" opacity=".597168" transform="matrix(0 -1 1 0 0 457)"><path d="m105.162453 167.50784c34.942118-79.0185137 257.102075-64.556271 325.458985 38.022091s-9.765273 330.470069-79.793824 330.470069c-70.028552 0-70.028552-153.864533-98.903453-199.051515-28.874902-45.186981-181.7038267-90.42213-146.761708-169.440645z" fill="#ff8b00" opacity=".596447"/><path d="m142.197693 420.031678c40.970419 9.445852 42.560872-35.023156 42.444552-94.074637-.116319-59.051482 7.958877-126.773062-33.011543-136.218914-40.970419-9.445853-83.9434515 47.216674-83.8271317 106.268156s33.4237027 114.579543 74.3941227 124.025395z" fill="#d0d5fa" transform="matrix(.65605903 .75470958 -.75470958 .65605903 273.69882 9.42476)"/><path d="m389.082627 123c28.488766 0 59.917373-27.0417205 59.917373-61.5s-31.428607-61.5-59.917373-61.5-39.082627 39.4344218-39.082627 67.6963507c0 28.2619288 10.593861 55.3036493 39.082627 55.3036493z" fill="#d0d5fa"/><g fill="#2026a2"><path d="m72.5 38 12.5 12.5-12.5 12.5-12.5-12.5z" transform="matrix(0 -1 1 0 22 123)"/><path d="m424 433 26 26-26 26-26-26z" transform="matrix(0 -1 1 0 -35 883)"/></g></g></svg>