<svg height="142" viewBox="0 0 142 142" width="142" xmlns="http://www.w3.org/2000/svg"><g fill="none" fill-rule="evenodd"><circle cx="71" cy="71" fill="#000" r="71"/><g transform="translate(28 28)"><path d="m21.5 7.16666667c-3.9416667 0-7.1308333 3.22500003-7.1308333 7.16666663l-.0358334 57.3333334c0 3.9416666 3.1891667 7.1666666 7.1308334 7.1666666h43.0358333c3.9416667 0 7.1666667-3.225 7.1666667-7.1666666v-43l-21.5-21.50000003zm25.0833333 25.08333333v-19.7083333l19.7083334 19.7083333z" fill="#fff" fill-rule="nonzero"/><path d="m0 0h86v86h-86z"/></g><path d="m19.2902775 10.3464035-9.64513876-10.3464035-9.64513874 10.3464035 2.81126082 3.0156579 4.84542515-5.22223684v15.15184214h3.97690553v-15.15184214l4.8454252 5.22223684z" fill="#000" transform="translate(61.145833 69.208333)"/></g></svg>