<svg height="33" viewBox="0 0 164 33" width="164" xmlns="http://www.w3.org/2000/svg"><g fill="none" fill-rule="evenodd"><path d="m56.28 14.016c0 .5973363-.0426662 1.1199978-.128 1.568h-13.568c.0640003 1.8133424.5653286 3.157329 1.504 4.032s2.1013264 1.312 3.488 1.312c1.2160061 0 2.2453291-.3093302 3.088-.928s1.359999-1.4399949 1.552-2.464h3.904c-.2346678 1.2373395-.7253296 2.3359952-1.472 3.296s-1.7173274 1.7119973-2.912 2.256-2.5279926.816-4 .816c-1.7066752 0-3.2159934-.362663-4.528-1.088s-2.3413296-1.7706598-3.088-3.136-1.12-2.9759907-1.12-4.832c0-1.8346758.3733296-3.4346598 1.12-4.8.7466704-1.36534016 1.7759934-2.41066304 3.088-3.136s2.8213248-1.088 4.528-1.088c1.7280086 0 3.2373269.35732976 4.528 1.072s2.2826632 1.69599376 2.976 2.944c.6933368 1.2480062 1.04 2.6399923 1.04 4.176zm-3.68-.096c.0426669-1.1520058-.1546645-2.1173294-.592-2.896s-1.0346629-1.3546648-1.792-1.728-1.5839955-.56-2.48-.56c-1.4293405 0-2.6239952.43732896-3.584 1.312-.9600048.874671-1.4826662 2.1653248-1.568 3.872zm16.672-8.16c2.0480102 0 3.6906605.66132672 4.928 1.984s1.856 3.2106544 1.856 5.664v10.272h-3.648v-9.888c0-1.5786746-.4053293-2.7999957-1.216-3.664-.8106707-.86400432-1.919993-1.296-3.328-1.296-1.4506739 0-2.613329.46399536-3.488 1.392-.874671.9280046-1.312 2.287991-1.312 4.08v9.376h-3.648v-17.632h3.648v3.872c.4693357-1.32267328 1.2586611-2.34666304 2.368-3.072s2.3893261-1.088 3.84-1.088zm17.888 14.144 4.992-13.856h3.904l-6.72 17.632h-4.416l-6.72-17.632h3.904zm27.584-5.888c0 .5973363-.042666 1.1199978-.128 1.568h-13.568c.064 1.8133424.565329 3.157329 1.504 4.032s2.101326 1.312 3.488 1.312c1.216006 0 2.245329-.3093302 3.088-.928s1.359999-1.4399949 1.552-2.464h3.904c-.234668 1.2373395-.72533 2.3359952-1.472 3.296s-1.717327 1.7119973-2.912 2.256-2.527993.816-4 .816c-1.706675 0-3.215993-.362663-4.528-1.088s-2.3413296-1.7706598-3.088-3.136-1.12-2.9759907-1.12-4.832c0-1.8346758.3733296-3.4346598 1.12-4.8.7466704-1.36534016 1.775993-2.41066304 3.088-3.136s2.821325-1.088 4.528-1.088c1.728009 0 3.237327.35732976 4.528 1.072s2.282663 1.69599376 2.976 2.944c.693337 1.2480062 1.04 2.6399923 1.04 4.176zm-3.68-.096c.042667-1.1520058-.154664-2.1173294-.592-2.896s-1.034663-1.3546648-1.792-1.728-1.583996-.56-2.48-.56c-1.42934 0-2.623995.43732896-3.584 1.312-.960005.874671-1.482666 2.1653248-1.568 3.872zm10.464-13.92v23.68h-3.648v-23.68zm12.096 5.824c1.706675 0 3.24266.36266304 4.608 1.088s2.431996 1.77065984 3.2 3.136c.768004 1.3653402 1.152 2.9653242 1.152 4.8 0 1.8560093-.383996 3.4666598-1.152 4.832s-1.83466 2.410663-3.2 3.136-2.901325 1.088-4.608 1.088-3.237327-.362663-4.592-1.088-2.421329-1.7759931-3.2-3.152-1.168-2.9813242-1.168-4.816.389329-3.4346598 1.168-4.8c.778671-1.36534016 1.845327-2.41066304 3.2-3.136s2.885325-1.088 4.592-1.088zm0 3.168c-.938671 0-1.802663.2133312-2.592.64s-1.423998 1.0826622-1.904 1.968-.72 1.9679936-.72 3.248c0 1.3013398.239998 2.389329.72 3.264s1.114663 1.5253312 1.904 1.952 1.653329.64 2.592.64 1.802663-.2133312 2.592-.64 1.423998-1.077329 1.904-1.952.72-1.9626602.72-3.264c0-1.2800064-.239998-2.3626622-.72-3.248s-1.114663-1.5413312-1.904-1.968-1.653329-.64-2.592-.64zm22.208-3.168c1.536008 0 2.906661.36266304 4.112 1.088s2.14933 1.77065984 2.832 3.136c.68267 1.3653402 1.024 2.9653242 1.024 4.8 0 1.8560093-.34133 3.4666598-1.024 4.832s-1.626661 2.410663-2.832 3.136-2.575992 1.088-4.112 1.088c-1.600008 0-2.965328-.3946627-4.096-1.184s-1.919998-1.8346602-2.368-3.136v12.48h-3.648v-26.016h3.648v4.096c.448002-1.30133984 1.237328-2.34666272 2.368-3.136s2.495992-1.184 4.096-1.184zm-1.12 3.2c-1.024005 0-1.941329.2399976-2.752.72s-1.450664 1.1626622-1.92 2.048-.704 1.9039942-.704 3.056c0 1.1733392.234664 2.197329.704 3.072s1.109329 1.5519976 1.92 2.032 1.727995.72 2.752.72c1.621341 0 2.922662-.5173282 3.904-1.552s1.472-2.4586576 1.472-4.272c0-1.792009-.490662-3.2106614-1.472-4.256-.981338-1.04533856-2.282659-1.568-3.904-1.568z" fill="#000"/><path d="m3.27268809 14.5300834-3.27268809-3.3442302v-8.1858532l7.36645002 7.4956738 5.57652348-5.4956738 5.6256636 5.4956738 7.4313629-7.4956738v8.1858532l-3.3015269 3.3442302 3.3015269 3.2252399v8.1858532h-26v-8.1858532zm0 0 9.67028541 9.8816813 9.7554996-9.8816813-4.129836-4.0344096-5.6256636 5.674348-5.57652348-5.674348z" fill="#231f20"/></g></svg>