<svg height="33" width="164" xmlns="http://www.w3.org/2000/svg"><g fill="none" fill-rule="evenodd"><path d="M56.28 14.016c0 .597-.043 1.12-.128 1.568H42.584c.064 1.813.565 3.157 1.504 4.032s2.101 1.312 3.488 1.312c1.216 0 2.245-.31 3.088-.928s1.36-1.44 1.552-2.464h3.904c-.235 1.237-.725 2.336-1.472 3.296s-1.717 1.712-2.912 2.256-2.528.816-4 .816c-1.707 0-3.216-.363-4.528-1.088s-2.341-1.77-3.088-3.136S39 16.704 39 14.848c0-1.835.373-3.435 1.12-4.8.747-1.365 1.776-2.41 3.088-3.136s2.821-1.088 4.528-1.088c1.728 0 3.237.357 4.528 1.072s2.283 1.696 2.976 2.944c.693 1.248 1.04 2.64 1.04 4.176zm-3.68-.096c.043-1.152-.155-2.117-.592-2.896s-1.035-1.355-1.792-1.728-1.584-.56-2.48-.56c-1.43 0-2.624.437-3.584 1.312s-1.483 2.165-1.568 3.872zm16.672-8.16c2.048 0 3.69.661 4.928 1.984s1.856 3.21 1.856 5.664V23.68h-3.648v-9.888c0-1.579-.405-2.8-1.216-3.664-.81-.864-1.92-1.296-3.328-1.296-1.45 0-2.613.464-3.488 1.392-.875.928-1.312 2.288-1.312 4.08v9.376h-3.648V6.048h3.648V9.92c.47-1.323 1.259-2.347 2.368-3.072s2.39-1.088 3.84-1.088zM87.16 19.904l4.992-13.856h3.904l-6.72 17.632H84.92L78.2 6.048h3.904zm27.584-5.888c0 .597-.043 1.12-.128 1.568h-13.568c.064 1.813.565 3.157 1.504 4.032s2.101 1.312 3.488 1.312c1.216 0 2.245-.31 3.088-.928s1.36-1.44 1.552-2.464h3.904c-.235 1.237-.725 2.336-1.472 3.296s-1.717 1.712-2.912 2.256-2.528.816-4 .816c-1.707 0-3.216-.363-4.528-1.088s-2.341-1.77-3.088-3.136-1.12-2.976-1.12-4.832c0-1.835.373-3.435 1.12-4.8.747-1.365 1.776-2.41 3.088-3.136s2.821-1.088 4.528-1.088c1.728 0 3.237.357 4.528 1.072s2.283 1.696 2.976 2.944c.693 1.248 1.04 2.64 1.04 4.176zm-3.68-.096c.043-1.152-.155-2.117-.592-2.896s-1.035-1.355-1.792-1.728-1.584-.56-2.48-.56c-1.43 0-2.624.437-3.584 1.312s-1.483 2.165-1.568 3.872zM121.528 0v23.68h-3.648V0zm12.096 5.824c1.707 0 3.243.363 4.608 1.088s2.432 1.77 3.2 3.136c.768 1.365 1.152 2.965 1.152 4.8 0 1.856-.384 3.467-1.152 4.832s-1.835 2.41-3.2 3.136-2.901 1.088-4.608 1.088-3.237-.363-4.592-1.088-2.421-1.776-3.2-3.152-1.168-2.981-1.168-4.816.39-3.435 1.168-4.8c.779-1.365 1.845-2.41 3.2-3.136s2.885-1.088 4.592-1.088zm0 3.168c-.939 0-1.803.213-2.592.64s-1.424 1.083-1.904 1.968-.72 1.968-.72 3.248c0 1.301.24 2.39.72 3.264s1.115 1.525 1.904 1.952 1.653.64 2.592.64 1.803-.213 2.592-.64 1.424-1.077 1.904-1.952.72-1.963.72-3.264c0-1.28-.24-2.363-.72-3.248s-1.115-1.541-1.904-1.968-1.653-.64-2.592-.64zm22.208-3.168c1.536 0 2.907.363 4.112 1.088s2.15 1.77 2.832 3.136c.683 1.365 1.024 2.965 1.024 4.8 0 1.856-.341 3.467-1.024 4.832s-1.627 2.41-2.832 3.136-2.576 1.088-4.112 1.088c-1.6 0-2.965-.395-4.096-1.184s-1.92-1.835-2.368-3.136v12.48h-3.648V6.048h3.648v4.096c.448-1.301 1.237-2.347 2.368-3.136s2.496-1.184 4.096-1.184zm-1.12 3.2c-1.024 0-1.941.24-2.752.72s-1.45 1.163-1.92 2.048-.704 1.904-.704 3.056c0 1.173.235 2.197.704 3.072s1.11 1.552 1.92 2.032 1.728.72 2.752.72c1.621 0 2.923-.517 3.904-1.552s1.472-2.459 1.472-4.272c0-1.792-.49-3.21-1.472-4.256-.981-1.045-2.283-1.568-3.904-1.568z" fill="#000"/><path d="M3.273 14.53L0 11.186V3l7.366 7.496L12.943 5l5.626 5.496L26 3v8.186l-3.302 3.344L26 17.755v8.186H0v-8.186zm0 0l9.67 9.882 9.755-9.882-4.13-4.034-5.625 5.674-5.577-5.674z" fill="#231f20"/></g></svg>