<?xml version="1.0" encoding="UTF-8"?>
<svg width="24px" height="24px" viewBox="0 0 24 24" version="1.1" xmlns="http://www.w3.org/2000/svg" xmlns:xlink="http://www.w3.org/1999/xlink">
    <!-- Generator: Sketch 48.2 (47327) - http://www.bohemiancoding.com/sketch -->
    <title>Artboard</title>
    <desc>Created with Sketch.</desc>
    <defs></defs>
    <g id="Page-1" stroke="none" stroke-width="1" fill="none" fill-rule="evenodd">
        <g id="Artboard" fill="#000000" fill-rule="nonzero">
            <g id="pdf" transform="translate(3.000000, 3.000000)">
                <path d="M9,7.3125 L10.125,7.3125 L10.125,10.6875 L9,10.6875 L9,7.3125 Z M3.375,8.4375 L4.5,8.4375 L4.5,7.3125 L3.375,7.3125 L3.375,8.4375 Z M18,2.25 L18,15.75 C18,16.9926407 16.9926407,18 15.75,18 L2.25,18 C1.00735931,18 0,16.9926407 0,15.75 L0,2.25 C0,1.00735931 1.00735931,0 2.25,0 L15.75,0 C16.9926407,0 18,1.00735931 18,2.25 Z M6.1875,7.3125 C6.1875,6.38051948 5.43198052,5.625 4.5,5.625 L1.6875,5.625 L1.6875,12.375 L3.375,12.375 L3.375,10.125 L4.5,10.125 C5.43198052,10.125 6.1875,9.36948052 6.1875,8.4375 L6.1875,7.3125 Z M11.8125,7.3125 C11.8125,6.38051948 11.0569805,5.625 10.125,5.625 L7.3125,5.625 L7.3125,12.375 L10.125,12.375 C11.0569805,12.375 11.8125,11.6194805 11.8125,10.6875 L11.8125,7.3125 Z M16.3125,5.625 L12.9375,5.625 L12.9375,12.375 L14.625,12.375 L14.625,10.125 L16.3125,10.125 L16.3125,8.4375 L14.625,8.4375 L14.625,7.3125 L16.3125,7.3125 L16.3125,5.625 Z" id="Shape"></path>
            </g>
        </g>
    </g>
</svg>