<svg height="24" width="24" xmlns="http://www.w3.org/2000/svg"><path d="M12 10.313h1.125v3.374H12zm-5.625 1.124H7.5v-1.124H6.375zM21 5.25v13.5A2.25 2.25 0 0 1 18.75 21H5.25A2.25 2.25 0 0 1 3 18.75V5.25A2.25 2.25 0 0 1 5.25 3h13.5A2.25 2.25 0 0 1 21 5.25zM9.187 10.313c0-.932-.755-1.688-1.687-1.688H4.687v6.75h1.688v-2.25H7.5c.932 0 1.688-.756 1.688-1.688zm5.626 0c0-.932-.756-1.688-1.688-1.688h-2.813v6.75h2.813c.932 0 1.688-.756 1.688-1.688zm4.5-1.688h-3.375v6.75h1.687v-2.25h1.688v-1.688h-1.688v-1.124h1.688z"/></svg>